<svg xmlns="http://www.w3.org/2000/svg" xmlns:xlink="http://www.w3.org/1999/xlink" width="500" zoomAndPan="magnify" viewBox="0 0 375 374.999991" height="500" preserveAspectRatio="xMidYMid meet" version="1.0"><defs><g/><clipPath id="41b41947d7"><path d="M 144 88.046875 L 231 88.046875 L 231 181.796875 L 144 181.796875 Z M 144 88.046875 " clip-rule="nonzero"/></clipPath><clipPath id="b3c9e7cf70"><path d="M 149.328125 91.292969 L 225.671875 91.292969 L 225.671875 167.636719 L 149.328125 167.636719 Z M 149.328125 91.292969 " clip-rule="nonzero"/></clipPath><clipPath id="6450ad3251"><path d="M 187.5 91.292969 C 166.417969 91.292969 149.328125 108.382812 149.328125 129.464844 C 149.328125 150.546875 166.417969 167.636719 187.5 167.636719 C 208.582031 167.636719 225.671875 150.546875 225.671875 129.464844 C 225.671875 108.382812 208.582031 91.292969 187.5 91.292969 Z M 187.5 91.292969 " clip-rule="nonzero"/></clipPath><clipPath id="5690b44e6f"><path d="M 199.515625 122.484375 L 213.730469 122.484375 L 213.730469 136.964844 L 199.515625 136.964844 Z M 199.515625 122.484375 " clip-rule="nonzero"/></clipPath><clipPath id="0dcac5a40e"><path d="M 175.691406 129.910156 L 200.300781 129.910156 L 200.300781 150.5 L 175.691406 150.5 Z M 175.691406 129.910156 " clip-rule="nonzero"/></clipPath></defs><g clip-path="url(#41b41947d7)"><path fill="#0b9e8f" d="M 227.640625 114.332031 C 224.960938 107.128906 219.503906 100.511719 212.269531 95.695312 C 204.886719 90.78125 196.078125 88.070312 187.464844 88.070312 C 187.433594 88.070312 187.402344 88.070312 187.375 88.074219 C 187.359375 88.074219 187.347656 88.070312 187.332031 88.070312 C 182.601562 88.074219 178.222656 88.722656 174.3125 89.996094 C 168.234375 91.984375 162.507812 95.285156 157.761719 99.550781 C 152.953125 103.863281 149.359375 108.976562 147.367188 114.335938 C 146.316406 117.160156 143.121094 127.28125 146.15625 138.863281 C 148.308594 147.0625 152.773438 152.679688 159.761719 159.613281 C 162.292969 162.121094 165.175781 164.484375 168.226562 166.984375 C 170.101562 168.523438 172.042969 170.109375 174.101562 171.890625 C 178.128906 175.371094 182.335938 178.710938 186.613281 181.820312 C 186.617188 181.820312 186.617188 181.820312 186.621094 181.824219 C 186.667969 181.855469 186.71875 181.886719 186.769531 181.914062 C 186.789062 181.925781 186.804688 181.9375 186.824219 181.949219 C 186.855469 181.960938 186.886719 181.972656 186.917969 181.984375 C 187.015625 182.027344 187.117188 182.058594 187.222656 182.078125 C 187.238281 182.082031 187.25 182.085938 187.265625 182.089844 C 187.324219 182.097656 187.378906 182.101562 187.4375 182.101562 C 187.457031 182.101562 187.480469 182.109375 187.5 182.109375 C 187.503906 182.109375 187.507812 182.105469 187.511719 182.105469 C 187.578125 182.105469 187.644531 182.101562 187.710938 182.089844 C 187.734375 182.085938 187.753906 182.082031 187.773438 182.078125 C 187.832031 182.070312 187.886719 182.054688 187.945312 182.039062 C 187.957031 182.035156 187.964844 182.035156 187.976562 182.03125 C 187.984375 182.027344 188 182.023438 188.007812 182.019531 C 188.070312 181.996094 188.128906 181.96875 188.1875 181.941406 C 188.214844 181.929688 188.234375 181.914062 188.257812 181.898438 C 188.292969 181.882812 188.324219 181.863281 188.351562 181.839844 C 188.367188 181.832031 188.378906 181.828125 188.390625 181.816406 C 192.671875 178.707031 196.878906 175.367188 200.902344 171.890625 C 202.484375 170.523438 203.996094 169.230469 205.457031 167.980469 C 217.6875 157.53125 225.765625 150.625 228.851562 138.859375 C 231.886719 127.28125 228.691406 117.160156 227.640625 114.332031 Z M 187.503906 144.808594 C 178.792969 144.808594 171.703125 137.722656 171.703125 129.011719 C 171.703125 120.296875 178.792969 113.210938 187.503906 113.210938 C 196.214844 113.210938 203.304688 120.296875 203.304688 129.011719 C 203.304688 137.722656 196.214844 144.808594 187.503906 144.808594 Z M 187.503906 144.808594 " fill-opacity="1" fill-rule="nonzero"/></g><g clip-path="url(#b3c9e7cf70)"><g clip-path="url(#6450ad3251)"><path fill="#0b9e8f" d="M 149.328125 91.292969 L 225.671875 91.292969 L 225.671875 167.636719 L 149.328125 167.636719 Z M 149.328125 91.292969 " fill-opacity="1" fill-rule="nonzero"/></g></g><path fill="#ffffff" d="M 179.445312 112.441406 C 188.796875 111.132812 189.550781 127.875 180.898438 127.46875 C 173.945312 127.144531 171.320312 113.582031 179.445312 112.441406 " fill-opacity="1" fill-rule="evenodd"/><path fill="#ffffff" d="M 194.472656 112.441406 C 204.769531 110.195312 203.566406 128.488281 193.988281 127.46875 C 186.40625 126.664062 187.882812 113.878906 194.472656 112.441406 " fill-opacity="1" fill-rule="evenodd"/><path fill="#ffffff" d="M 176.054688 132.558594 C 172.390625 140.550781 161.234375 134.90625 162.480469 126.984375 C 163.792969 118.640625 178.714844 122.894531 176.054688 132.558594 " fill-opacity="1" fill-rule="evenodd"/><g clip-path="url(#5690b44e6f)"><path fill="#ffffff" d="M 206.351562 122.621094 C 208.757812 122.15625 211.769531 123.011719 212.894531 125.046875 C 215.996094 130.65625 210.28125 137.515625 204.652344 136.921875 C 201.5625 136.597656 199.777344 133.964844 199.5625 131.589844 C 199.101562 126.5 202.738281 123.320312 206.351562 122.621094 " fill-opacity="1" fill-rule="evenodd"/></g><g clip-path="url(#0dcac5a40e)"><path fill="#ffffff" d="M 185.503906 130.136719 C 193.996094 128.671875 201.792969 134.789062 200.046875 145.160156 C 199.6875 147.308594 197.839844 150.34375 195.199219 150.496094 C 193.070312 150.617188 190.582031 148.542969 187.929688 148.554688 C 184.636719 148.570312 182.042969 151.492188 178.960938 150.011719 C 176.371094 148.765625 175.328125 143.734375 175.8125 140.074219 C 176.507812 134.792969 180.386719 131.015625 185.503906 130.136719 " fill-opacity="1" fill-rule="evenodd"/></g><g fill="#0b9e8f" fill-opacity="1"><g transform="translate(55.861188, 236.036761)"><g><path d="M 30.507812 -13.6875 C 38.238281 -19.488281 36.730469 -32.632812 30.585938 -36.730469 C 22.851562 -41.953125 6.535156 -39.59375 3.171875 -36.304688 C 1.933594 -31.628906 2.089844 -9.976562 2.746094 -6.535156 C 4.445312 2.203125 13.261719 3.054688 16.472656 -0.464844 C 16.898438 -4.640625 16.859375 -10.632812 16.859375 -11.289062 C 16.859375 -11.328125 16.898438 -11.367188 16.898438 -11.367188 C 16.972656 -11.40625 17.011719 -11.40625 17.050781 -11.445312 C 17.089844 -11.445312 17.089844 -11.445312 17.128906 -11.445312 C 17.707031 -11.058594 24.628906 -9.316406 30.507812 -13.6875 Z M 22.8125 -24.667969 C 22.8125 -23.121094 22.269531 -22.308594 21.109375 -22.117188 C 20.144531 -21.921875 19.179688 -21.960938 18.210938 -21.960938 C 18.054688 -21.960938 17.785156 -22.269531 17.785156 -22.425781 C 17.746094 -23.777344 17.746094 -24.863281 17.746094 -26.484375 C 20.300781 -28.03125 22.8125 -26.253906 22.8125 -24.667969 Z M 22.8125 -24.667969 "/></g></g></g><g fill="#0b9e8f" fill-opacity="1"><g transform="translate(91.625305, 236.036761)"><g><path d="M 2.125 -8.929688 C 2.4375 -3.671875 4.019531 -1.082031 7.65625 -0.15625 C 10.441406 0.503906 20.53125 0.425781 23.742188 0 C 31.085938 -0.964844 32.09375 -7.65625 29.152344 -11.792969 C 25.015625 -11.792969 20.878906 -11.792969 16.742188 -11.792969 C 16.433594 -11.792969 16.125 -11.792969 15.851562 -11.792969 C 15.851562 -12.605469 15.851562 -13.300781 15.851562 -14.152344 C 19.449219 -14.152344 20.609375 -14.074219 22.582031 -14.152344 C 28.265625 -14.421875 30.042969 -18.90625 27.722656 -24.050781 C 24.4375 -25.09375 18.054688 -24.667969 15.8125 -24.667969 C 15.8125 -25.441406 15.8125 -26.058594 15.8125 -26.679688 C 20.800781 -26.679688 21.691406 -26.679688 23.777344 -26.679688 C 33.097656 -26.679688 32.09375 -36.269531 30.660156 -38.316406 C 23.777344 -38.859375 9.203125 -39.011719 2.746094 -38.355469 C 1.972656 -31.820312 1.816406 -14.230469 2.125 -8.929688 Z M 2.125 -8.929688 "/></g></g></g><g fill="#0b9e8f" fill-opacity="1"><g transform="translate(122.440426, 236.036761)"><g><path d="M 34.761719 -38.585938 C 30.351562 -38.550781 14.152344 -38.78125 9.28125 -38.472656 C 1.933594 -38.007812 1.390625 -28.960938 3.867188 -25.75 C 6.378906 -25.25 9.203125 -25.285156 11.792969 -25.480469 C 11.675781 -18.09375 12.023438 -10.089844 12.410156 -7.925781 C 14.113281 1.042969 22.582031 2.320312 25.828125 -1.277344 C 26.5625 -6.574219 26.832031 -18.25 26.5625 -25.441406 C 26.757812 -25.441406 27.722656 -25.519531 29.074219 -25.597656 C 37.738281 -26.136719 36.808594 -35.882812 34.761719 -38.585938 Z M 34.761719 -38.585938 "/></g></g></g><g fill="#0b9e8f" fill-opacity="1"><g transform="translate(158.707174, 236.036761)"><g/></g></g><g fill="#0b9e8f" fill-opacity="1"><g transform="translate(176.453846, 236.036761)"><g><path d="M 25.636719 -26.445312 C 30.699219 -24.398438 37.621094 -28.304688 35.6875 -35.6875 C 27.375 -40.480469 19.488281 -40.480469 13.03125 -37.351562 C 8.195312 -34.953125 4.640625 -31.589844 2.898438 -26.445312 C 1.351562 -21.882812 1.507812 -17.285156 2.785156 -12.722656 C 4.679688 -6.148438 8.894531 -1.816406 15.621094 -0.078125 C 20.105469 1.042969 26.871094 1.316406 31.007812 -0.617188 C 40.867188 -5.257812 37.3125 -14.617188 31.859375 -15.660156 C 30.933594 -15.078125 27.605469 -12.875 24.976562 -12.527344 C 21.035156 -11.949219 17.246094 -13.417969 16.625 -17.980469 C 16.199219 -20.996094 16.78125 -23.933594 19.527344 -25.636719 C 21.613281 -26.949219 23.277344 -27.027344 25.636719 -26.445312 Z M 25.636719 -26.445312 "/></g></g></g><g fill="#0b9e8f" fill-opacity="1"><g transform="translate(213.107232, 236.036761)"><g><path d="M 0.578125 -11.675781 C -1.082031 -2.898438 3.519531 3.171875 13.03125 -0.308594 C 13.570312 -2.320312 14.191406 -4.253906 14.847656 -5.878906 C 17.320312 -5.800781 20.027344 -5.953125 22.464844 -5.839844 C 25.519531 4.753906 37.3125 -0.0390625 37.851562 -4.253906 C 36.382812 -12.371094 32.363281 -25.984375 30.273438 -31.085938 C 25.867188 -41.835938 14.34375 -39.398438 9.046875 -37.660156 C 6.574219 -32.828125 2.089844 -19.449219 0.578125 -11.675781 Z M 16.355469 -16.933594 C 17.089844 -20.105469 17.824219 -23.121094 18.519531 -26.175781 C 18.636719 -26.175781 18.753906 -26.175781 18.867188 -26.214844 C 19.601562 -23.121094 20.375 -20.066406 21.109375 -16.933594 C 19.527344 -16.933594 18.019531 -16.933594 16.355469 -16.933594 Z M 16.355469 -16.933594 "/></g></g></g><g fill="#0b9e8f" fill-opacity="1"><g transform="translate(249.760618, 236.036761)"><g><path d="M 30.199219 -14.382812 C 30.507812 -14.539062 30.777344 -14.691406 31.007812 -14.886719 C 39.785156 -21.34375 36.074219 -32.363281 29.925781 -36.5 C 22.15625 -41.679688 5.878906 -39.324219 2.511719 -36.035156 C 1.238281 -31.355469 1.703125 -10.941406 2.359375 -7.5 C 4.019531 1.238281 12.527344 2.472656 15.738281 -1.042969 C 16.007812 -2.9375 16.238281 -6.378906 16.394531 -9.550781 C 16.433594 -10.363281 16.472656 -11.175781 16.472656 -11.871094 C 16.546875 -11.871094 16.664062 -11.910156 16.742188 -11.949219 C 16.933594 -11.675781 17.167969 -11.367188 17.359375 -11.058594 C 19.71875 -7.347656 20.839844 -5.644531 21.808594 -4.097656 C 26.371094 3.324219 35.53125 2.28125 36.769531 -4.445312 C 35.917969 -6.765625 32.015625 -12.683594 30.199219 -14.382812 Z M 22.15625 -24.28125 C 22.15625 -23.199219 21.613281 -22.464844 20.414062 -22.269531 C 19.488281 -22.078125 18.519531 -22.117188 17.554688 -22.117188 C 17.398438 -22.117188 17.089844 -22.425781 17.089844 -22.582031 C 17.050781 -23.933594 17.089844 -24.550781 17.089844 -26.175781 C 20.027344 -27.53125 22.15625 -26.136719 22.15625 -24.28125 Z M 22.15625 -24.28125 "/></g></g></g><g fill="#0b9e8f" fill-opacity="1"><g transform="translate(286.568661, 236.036761)"><g><path d="M 2.125 -8.929688 C 2.4375 -3.671875 4.019531 -1.082031 7.65625 -0.15625 C 10.441406 0.503906 20.53125 0.425781 23.742188 0 C 31.085938 -0.964844 32.09375 -7.65625 29.152344 -11.792969 C 25.015625 -11.792969 20.878906 -11.792969 16.742188 -11.792969 C 16.433594 -11.792969 16.125 -11.792969 15.851562 -11.792969 C 15.851562 -12.605469 15.851562 -13.300781 15.851562 -14.152344 C 19.449219 -14.152344 20.609375 -14.074219 22.582031 -14.152344 C 28.265625 -14.421875 30.042969 -18.90625 27.722656 -24.050781 C 24.4375 -25.09375 18.054688 -24.667969 15.8125 -24.667969 C 15.8125 -25.441406 15.8125 -26.058594 15.8125 -26.679688 C 20.800781 -26.679688 21.691406 -26.679688 23.777344 -26.679688 C 33.097656 -26.679688 32.09375 -36.269531 30.660156 -38.316406 C 23.777344 -38.859375 9.203125 -39.011719 2.746094 -38.355469 C 1.972656 -31.820312 1.816406 -14.230469 2.125 -8.929688 Z M 2.125 -8.929688 "/></g></g></g><g fill="#0b9e8f" fill-opacity="1"><g transform="translate(113.480963, 271.089781)"><g><path d="M 12.34375 -23.796875 C 13.539062 -23.796875 14.648438 -23.472656 15.671875 -22.828125 C 16.691406 -22.179688 17.5 -21.300781 18.09375 -20.1875 C 18.695312 -19.082031 19 -17.863281 19 -16.53125 C 19 -15.1875 18.695312 -13.945312 18.09375 -12.8125 C 17.5 -11.6875 16.691406 -10.789062 15.671875 -10.125 C 14.648438 -9.46875 13.539062 -9.140625 12.34375 -9.140625 L 5.953125 -9.140625 L 5.953125 -1.625 C 5.953125 -1.175781 5.800781 -0.789062 5.5 -0.46875 C 5.207031 -0.15625 4.835938 0 4.390625 0 C 3.910156 0 3.53125 -0.148438 3.25 -0.453125 C 2.96875 -0.765625 2.828125 -1.15625 2.828125 -1.625 L 2.828125 -22.171875 C 2.828125 -22.617188 2.984375 -23 3.296875 -23.3125 C 3.617188 -23.632812 4.003906 -23.796875 4.453125 -23.796875 Z M 12.34375 -12.234375 C 12.957031 -12.234375 13.523438 -12.429688 14.046875 -12.828125 C 14.566406 -13.234375 14.976562 -13.765625 15.28125 -14.421875 C 15.582031 -15.078125 15.734375 -15.78125 15.734375 -16.53125 C 15.734375 -17.6875 15.398438 -18.664062 14.734375 -19.46875 C 14.066406 -20.269531 13.269531 -20.671875 12.34375 -20.671875 L 5.953125 -20.671875 L 5.953125 -12.234375 Z M 12.34375 -12.234375 "/></g></g></g><g fill="#0b9e8f" fill-opacity="1"><g transform="translate(133.776625, 271.089781)"><g><path d="M 18.046875 -9.59375 C 18.023438 -9.175781 17.851562 -8.828125 17.53125 -8.546875 C 17.21875 -8.265625 16.847656 -8.125 16.421875 -8.125 L 4.453125 -8.125 C 4.609375 -6.46875 5.234375 -5.140625 6.328125 -4.140625 C 7.429688 -3.148438 8.78125 -2.65625 10.375 -2.65625 C 11.457031 -2.65625 12.335938 -2.8125 13.015625 -3.125 C 13.703125 -3.445312 14.304688 -3.859375 14.828125 -4.359375 C 15.160156 -4.554688 15.488281 -4.65625 15.8125 -4.65625 C 16.195312 -4.65625 16.519531 -4.519531 16.78125 -4.25 C 17.039062 -3.976562 17.171875 -3.660156 17.171875 -3.296875 C 17.171875 -2.816406 16.941406 -2.382812 16.484375 -2 C 15.828125 -1.34375 14.953125 -0.785156 13.859375 -0.328125 C 12.773438 0.117188 11.671875 0.34375 10.546875 0.34375 C 8.703125 0.34375 7.082031 -0.0390625 5.6875 -0.8125 C 4.300781 -1.582031 3.226562 -2.660156 2.46875 -4.046875 C 1.707031 -5.429688 1.328125 -6.992188 1.328125 -8.734375 C 1.328125 -10.640625 1.71875 -12.3125 2.5 -13.75 C 3.28125 -15.1875 4.3125 -16.289062 5.59375 -17.0625 C 6.875 -17.832031 8.25 -18.21875 9.71875 -18.21875 C 11.175781 -18.21875 12.535156 -17.84375 13.796875 -17.09375 C 15.066406 -16.351562 16.085938 -15.320312 16.859375 -14 C 17.628906 -12.6875 18.023438 -11.21875 18.046875 -9.59375 Z M 9.71875 -15.234375 C 8.445312 -15.234375 7.347656 -14.875 6.421875 -14.15625 C 5.492188 -13.445312 4.882812 -12.34375 4.59375 -10.84375 L 14.625 -10.84375 L 14.625 -11.125 C 14.507812 -12.320312 13.96875 -13.304688 13 -14.078125 C 12.039062 -14.847656 10.945312 -15.234375 9.71875 -15.234375 Z M 9.71875 -15.234375 "/></g></g></g><g fill="#0b9e8f" fill-opacity="1"><g transform="translate(153.0524, 271.089781)"><g><path d="M 7.234375 -14.65625 L 7.234375 -4.515625 C 7.234375 -3.390625 7.742188 -2.828125 8.765625 -2.828125 C 8.929688 -2.828125 9.148438 -2.863281 9.421875 -2.9375 C 9.691406 -3.019531 9.90625 -3.0625 10.0625 -3.0625 C 10.351562 -3.0625 10.601562 -2.9375 10.8125 -2.6875 C 11.019531 -2.4375 11.125 -2.117188 11.125 -1.734375 C 11.125 -1.253906 10.847656 -0.84375 10.296875 -0.5 C 9.753906 -0.164062 9.144531 0 8.46875 0 C 7.71875 0 7.03125 -0.078125 6.40625 -0.234375 C 5.78125 -0.390625 5.222656 -0.789062 4.734375 -1.4375 C 4.253906 -2.082031 4.015625 -3.066406 4.015625 -4.390625 L 4.015625 -14.65625 L 2.046875 -14.65625 C 1.609375 -14.65625 1.25 -14.796875 0.96875 -15.078125 C 0.6875 -15.359375 0.546875 -15.71875 0.546875 -16.15625 C 0.546875 -16.582031 0.6875 -16.929688 0.96875 -17.203125 C 1.25 -17.472656 1.609375 -17.609375 2.046875 -17.609375 L 4.015625 -17.609375 L 4.015625 -20.46875 C 4.015625 -20.914062 4.164062 -21.296875 4.46875 -21.609375 C 4.78125 -21.929688 5.171875 -22.09375 5.640625 -22.09375 C 6.097656 -22.09375 6.476562 -21.929688 6.78125 -21.609375 C 7.082031 -21.296875 7.234375 -20.914062 7.234375 -20.46875 L 7.234375 -17.609375 L 10.0625 -17.609375 C 10.488281 -17.609375 10.84375 -17.46875 11.125 -17.1875 C 11.414062 -16.90625 11.5625 -16.546875 11.5625 -16.109375 C 11.5625 -15.679688 11.414062 -15.332031 11.125 -15.0625 C 10.84375 -14.789062 10.488281 -14.65625 10.0625 -14.65625 Z M 7.234375 -14.65625 "/></g></g></g><g fill="#0b9e8f" fill-opacity="1"><g transform="translate(165.868927, 271.089781)"><g/></g></g><g fill="#0b9e8f" fill-opacity="1"><g transform="translate(175.183845, 271.089781)"><g><path d="M 10.03125 0.34375 C 8.375 0.34375 6.910156 0.113281 5.640625 -0.34375 C 4.367188 -0.8125 3.15625 -1.570312 2 -2.625 C 1.53125 -3.03125 1.296875 -3.492188 1.296875 -4.015625 C 1.296875 -4.421875 1.453125 -4.785156 1.765625 -5.109375 C 2.085938 -5.441406 2.460938 -5.609375 2.890625 -5.609375 C 3.273438 -5.609375 3.601562 -5.484375 3.875 -5.234375 C 4.78125 -4.398438 5.710938 -3.78125 6.671875 -3.375 C 7.640625 -2.976562 8.738281 -2.78125 9.96875 -2.78125 C 11.394531 -2.78125 12.597656 -3.109375 13.578125 -3.765625 C 14.566406 -4.429688 15.0625 -5.257812 15.0625 -6.25 C 15.039062 -7.4375 14.546875 -8.351562 13.578125 -9 C 12.617188 -9.644531 11.15625 -10.179688 9.1875 -10.609375 C 6.84375 -11.085938 5.039062 -11.867188 3.78125 -12.953125 C 2.53125 -14.046875 1.90625 -15.550781 1.90625 -17.46875 C 1.90625 -18.8125 2.253906 -19.988281 2.953125 -21 C 3.660156 -22.007812 4.632812 -22.785156 5.875 -23.328125 C 7.125 -23.867188 8.53125 -24.140625 10.09375 -24.140625 C 11.5 -24.140625 12.828125 -23.910156 14.078125 -23.453125 C 15.328125 -23.003906 16.335938 -22.40625 17.109375 -21.65625 C 17.628906 -21.207031 17.890625 -20.722656 17.890625 -20.203125 C 17.890625 -19.785156 17.734375 -19.414062 17.421875 -19.09375 C 17.117188 -18.78125 16.75 -18.625 16.3125 -18.625 C 16 -18.625 15.738281 -18.71875 15.53125 -18.90625 C 14.945312 -19.488281 14.132812 -19.984375 13.09375 -20.390625 C 12.050781 -20.804688 11.050781 -21.015625 10.09375 -21.015625 C 8.570312 -21.015625 7.363281 -20.703125 6.46875 -20.078125 C 5.582031 -19.453125 5.140625 -18.628906 5.140625 -17.609375 C 5.140625 -16.503906 5.582031 -15.65625 6.46875 -15.0625 C 7.363281 -14.46875 8.695312 -13.96875 10.46875 -13.5625 C 12.238281 -13.175781 13.679688 -12.722656 14.796875 -12.203125 C 15.921875 -11.679688 16.789062 -10.957031 17.40625 -10.03125 C 18.019531 -9.101562 18.328125 -7.890625 18.328125 -6.390625 C 18.328125 -5.078125 17.957031 -3.910156 17.21875 -2.890625 C 16.476562 -1.867188 15.472656 -1.070312 14.203125 -0.5 C 12.941406 0.0625 11.550781 0.34375 10.03125 0.34375 Z M 10.03125 0.34375 "/></g></g></g><g fill="#0b9e8f" fill-opacity="1"><g transform="translate(194.867578, 271.089781)"><g><path d="M 7.234375 -14.65625 L 7.234375 -4.515625 C 7.234375 -3.390625 7.742188 -2.828125 8.765625 -2.828125 C 8.929688 -2.828125 9.148438 -2.863281 9.421875 -2.9375 C 9.691406 -3.019531 9.90625 -3.0625 10.0625 -3.0625 C 10.351562 -3.0625 10.601562 -2.9375 10.8125 -2.6875 C 11.019531 -2.4375 11.125 -2.117188 11.125 -1.734375 C 11.125 -1.253906 10.847656 -0.84375 10.296875 -0.5 C 9.753906 -0.164062 9.144531 0 8.46875 0 C 7.71875 0 7.03125 -0.078125 6.40625 -0.234375 C 5.78125 -0.390625 5.222656 -0.789062 4.734375 -1.4375 C 4.253906 -2.082031 4.015625 -3.066406 4.015625 -4.390625 L 4.015625 -14.65625 L 2.046875 -14.65625 C 1.609375 -14.65625 1.25 -14.796875 0.96875 -15.078125 C 0.6875 -15.359375 0.546875 -15.71875 0.546875 -16.15625 C 0.546875 -16.582031 0.6875 -16.929688 0.96875 -17.203125 C 1.25 -17.472656 1.609375 -17.609375 2.046875 -17.609375 L 4.015625 -17.609375 L 4.015625 -20.46875 C 4.015625 -20.914062 4.164062 -21.296875 4.46875 -21.609375 C 4.78125 -21.929688 5.171875 -22.09375 5.640625 -22.09375 C 6.097656 -22.09375 6.476562 -21.929688 6.78125 -21.609375 C 7.082031 -21.296875 7.234375 -20.914062 7.234375 -20.46875 L 7.234375 -17.609375 L 10.0625 -17.609375 C 10.488281 -17.609375 10.84375 -17.46875 11.125 -17.1875 C 11.414062 -16.90625 11.5625 -16.546875 11.5625 -16.109375 C 11.5625 -15.679688 11.414062 -15.332031 11.125 -15.0625 C 10.84375 -14.789062 10.488281 -14.65625 10.0625 -14.65625 Z M 7.234375 -14.65625 "/></g></g></g><g fill="#0b9e8f" fill-opacity="1"><g transform="translate(207.684102, 271.089781)"><g><path d="M 19.28125 -8.90625 C 19.28125 -7.132812 18.878906 -5.546875 18.078125 -4.140625 C 17.285156 -2.742188 16.203125 -1.644531 14.828125 -0.84375 C 13.460938 -0.0507812 11.953125 0.34375 10.296875 0.34375 C 8.640625 0.34375 7.125 -0.0507812 5.75 -0.84375 C 4.382812 -1.644531 3.304688 -2.742188 2.515625 -4.140625 C 1.722656 -5.546875 1.328125 -7.132812 1.328125 -8.90625 C 1.328125 -10.675781 1.722656 -12.273438 2.515625 -13.703125 C 3.304688 -15.128906 4.382812 -16.238281 5.75 -17.03125 C 7.125 -17.820312 8.640625 -18.21875 10.296875 -18.21875 C 11.953125 -18.21875 13.460938 -17.820312 14.828125 -17.03125 C 16.203125 -16.238281 17.285156 -15.128906 18.078125 -13.703125 C 18.878906 -12.273438 19.28125 -10.675781 19.28125 -8.90625 Z M 16.046875 -8.90625 C 16.046875 -10.132812 15.789062 -11.226562 15.28125 -12.1875 C 14.769531 -13.15625 14.078125 -13.90625 13.203125 -14.4375 C 12.335938 -14.96875 11.367188 -15.234375 10.296875 -15.234375 C 9.234375 -15.234375 8.265625 -14.96875 7.390625 -14.4375 C 6.523438 -13.90625 5.835938 -13.15625 5.328125 -12.1875 C 4.816406 -11.226562 4.5625 -10.132812 4.5625 -8.90625 C 4.5625 -7.707031 4.816406 -6.628906 5.328125 -5.671875 C 5.835938 -4.722656 6.523438 -3.984375 7.390625 -3.453125 C 8.265625 -2.921875 9.234375 -2.65625 10.296875 -2.65625 C 11.367188 -2.65625 12.335938 -2.921875 13.203125 -3.453125 C 14.078125 -3.984375 14.769531 -4.722656 15.28125 -5.671875 C 15.789062 -6.628906 16.046875 -7.707031 16.046875 -8.90625 Z M 16.046875 -8.90625 "/></g></g></g><g fill="#0b9e8f" fill-opacity="1"><g transform="translate(228.183748, 271.089781)"><g><path d="M 11.28125 -18.21875 C 11.875 -18.21875 12.382812 -18.066406 12.8125 -17.765625 C 13.25 -17.460938 13.46875 -17.082031 13.46875 -16.625 C 13.46875 -16.082031 13.320312 -15.664062 13.03125 -15.375 C 12.75 -15.09375 12.40625 -14.953125 12 -14.953125 C 11.800781 -14.953125 11.492188 -15.019531 11.078125 -15.15625 C 10.609375 -15.320312 10.238281 -15.40625 9.96875 -15.40625 C 9.257812 -15.40625 8.570312 -15.160156 7.90625 -14.671875 C 7.238281 -14.179688 6.691406 -13.507812 6.265625 -12.65625 C 5.847656 -11.8125 5.640625 -10.867188 5.640625 -9.828125 L 5.640625 -1.625 C 5.640625 -1.175781 5.484375 -0.789062 5.171875 -0.46875 C 4.867188 -0.15625 4.484375 0 4.015625 0 C 3.535156 0 3.144531 -0.148438 2.84375 -0.453125 C 2.550781 -0.765625 2.40625 -1.15625 2.40625 -1.625 L 2.40625 -16.1875 C 2.40625 -16.632812 2.554688 -17.015625 2.859375 -17.328125 C 3.171875 -17.648438 3.554688 -17.8125 4.015625 -17.8125 C 4.484375 -17.8125 4.867188 -17.648438 5.171875 -17.328125 C 5.484375 -17.015625 5.640625 -16.632812 5.640625 -16.1875 L 5.640625 -14.453125 C 6.140625 -15.554688 6.890625 -16.453125 7.890625 -17.140625 C 8.890625 -17.835938 10.019531 -18.195312 11.28125 -18.21875 Z M 11.28125 -18.21875 "/></g></g></g><g fill="#0b9e8f" fill-opacity="1"><g transform="translate(242.122135, 271.089781)"><g><path d="M 18.046875 -9.59375 C 18.023438 -9.175781 17.851562 -8.828125 17.53125 -8.546875 C 17.21875 -8.265625 16.847656 -8.125 16.421875 -8.125 L 4.453125 -8.125 C 4.609375 -6.46875 5.234375 -5.140625 6.328125 -4.140625 C 7.429688 -3.148438 8.78125 -2.65625 10.375 -2.65625 C 11.457031 -2.65625 12.335938 -2.8125 13.015625 -3.125 C 13.703125 -3.445312 14.304688 -3.859375 14.828125 -4.359375 C 15.160156 -4.554688 15.488281 -4.65625 15.8125 -4.65625 C 16.195312 -4.65625 16.519531 -4.519531 16.78125 -4.25 C 17.039062 -3.976562 17.171875 -3.660156 17.171875 -3.296875 C 17.171875 -2.816406 16.941406 -2.382812 16.484375 -2 C 15.828125 -1.34375 14.953125 -0.785156 13.859375 -0.328125 C 12.773438 0.117188 11.671875 0.34375 10.546875 0.34375 C 8.703125 0.34375 7.082031 -0.0390625 5.6875 -0.8125 C 4.300781 -1.582031 3.226562 -2.660156 2.46875 -4.046875 C 1.707031 -5.429688 1.328125 -6.992188 1.328125 -8.734375 C 1.328125 -10.640625 1.71875 -12.3125 2.5 -13.75 C 3.28125 -15.1875 4.3125 -16.289062 5.59375 -17.0625 C 6.875 -17.832031 8.25 -18.21875 9.71875 -18.21875 C 11.175781 -18.21875 12.535156 -17.84375 13.796875 -17.09375 C 15.066406 -16.351562 16.085938 -15.320312 16.859375 -14 C 17.628906 -12.6875 18.023438 -11.21875 18.046875 -9.59375 Z M 9.71875 -15.234375 C 8.445312 -15.234375 7.347656 -14.875 6.421875 -14.15625 C 5.492188 -13.445312 4.882812 -12.34375 4.59375 -10.84375 L 14.625 -10.84375 L 14.625 -11.125 C 14.507812 -12.320312 13.96875 -13.304688 13 -14.078125 C 12.039062 -14.847656 10.945312 -15.234375 9.71875 -15.234375 Z M 9.71875 -15.234375 "/></g></g></g></svg>